<?xml version="1.0" encoding="UTF-8"?>
<!DOCTYPE svg PUBLIC "-//W3C//DTD SVG 1.1//EN" "http://www.w3.org/Graphics/SVG/1.1/DTD/svg11.dtd">
<svg xmlns="http://www.w3.org/2000/svg" version="1.1" width="500px" height="500px" style="shape-rendering:geometricPrecision; text-rendering:geometricPrecision; image-rendering:optimizeQuality; fill-rule:evenodd; clip-rule:evenodd" xmlns:xlink="http://www.w3.org/1999/xlink">
<g><path style="opacity:1" fill="#fefefe" d="M -0.5,-0.5 C 166.167,-0.5 332.833,-0.5 499.5,-0.5C 499.5,166.167 499.5,332.833 499.5,499.5C 332.833,499.5 166.167,499.5 -0.5,499.5C -0.5,332.833 -0.5,166.167 -0.5,-0.5 Z"/></g>
<g><path style="opacity:1" fill="#4a0972" d="M 206.5,245.5 C 206.173,250.544 206.506,255.544 207.5,260.5C 208.107,260.376 208.44,260.043 208.5,259.5C 219.146,237.402 229.312,215.068 239,192.5C 244.652,190.494 249.652,191.494 254,195.5C 254.167,197 254.333,198.5 254.5,200C 251.28,218.822 248.113,237.655 245,256.5C 244.333,260.167 244.333,263.833 245,267.5C 246.864,270.207 249.364,271.041 252.5,270C 256.38,267.621 259.38,264.454 261.5,260.5C 262.5,260.5 263.5,260.5 264.5,260.5C 261.415,274.415 252.749,280.915 238.5,280C 233.572,278.073 230.406,274.573 229,269.5C 228.333,265.167 228.333,260.833 229,256.5C 231.515,242.794 233.849,229.127 236,215.5C 228.667,230.833 221.333,246.167 214,261.5C 210.977,267.208 208.811,273.208 207.5,279.5C 203.869,280.412 200.203,280.579 196.5,280C 194.513,278.681 193.346,276.848 193,274.5C 191.706,257.524 190.873,240.524 190.5,223.5C 190.665,220.482 190.498,217.482 190,214.5C 188.961,215.244 188.461,216.244 188.5,217.5C 184.55,235.07 179.717,252.404 174,269.5C 170.793,277.516 164.959,281.016 156.5,280C 155.069,279.535 153.903,278.701 153,277.5C 151.496,273.961 151.163,270.295 152,266.5C 160.278,267.687 166.278,264.354 170,256.5C 177.411,235.524 183.577,214.191 188.5,192.5C 192.108,191.407 195.775,191.24 199.5,192C 201.667,192.833 203.167,194.333 204,196.5C 205.282,212.811 206.115,229.144 206.5,245.5 Z"/></g>
<g><path style="opacity:1" fill="#9c78b2" d="M 190.5,223.5 C 189.833,221.5 189.167,219.5 188.5,217.5C 188.461,216.244 188.961,215.244 190,214.5C 190.498,217.482 190.665,220.482 190.5,223.5 Z"/></g>
<g><path style="opacity:1" fill="#ff5df9" d="M 264.5,260.5 C 263.5,260.5 262.5,260.5 261.5,260.5C 260.5,260.5 259.5,260.5 258.5,260.5C 258.5,251.833 258.5,243.167 258.5,234.5C 262.351,233.971 265.851,234.638 269,236.5C 274.661,232.421 280.161,232.754 285.5,237.5C 291.666,231.928 297.499,232.261 303,238.5C 303.5,245.826 303.666,253.159 303.5,260.5C 300.5,260.5 297.5,260.5 294.5,260.5C 294.666,254.491 294.499,248.491 294,242.5C 291.667,239.833 289.333,239.833 287,242.5C 286.501,248.491 286.334,254.491 286.5,260.5C 283.167,260.5 279.833,260.5 276.5,260.5C 276.666,254.491 276.499,248.491 276,242.5C 273.667,239.833 271.333,239.833 269,242.5C 268.501,248.491 268.334,254.491 268.5,260.5C 267.167,260.5 265.833,260.5 264.5,260.5 Z"/></g>
<g><path style="opacity:1" fill="#9067a8" d="M 206.5,245.5 C 207.167,250.167 207.833,254.833 208.5,259.5C 208.44,260.043 208.107,260.376 207.5,260.5C 206.506,255.544 206.173,250.544 206.5,245.5 Z"/></g>
</svg>
